<svg width="56" height="54" viewBox="0 0 56 54" fill="none" xmlns="http://www.w3.org/2000/svg">
<path d="M47.3686 0.183102C47.06 0.00507076 46.6922 -0.0456599 46.3457 0.0420115C45.9991 0.129683 45.702 0.348617 45.5194 0.650904L35.848 16.7423C35.7984 16.8258 35.7584 16.9144 35.7286 17.0065C34.6465 17.4005 33.6365 17.964 32.7378 18.6752C29.8074 13.7856 24.4382 10.7068 18.5723 10.7068C9.52123 10.7068 2.15877 17.9276 2.13354 26.811H0L0.190769 28.3032C1.30092 36.9763 6.74708 44.5518 14.5778 48.5408V53.6618H34.7834C37.3446 53.6618 39.4283 51.6135 39.4283 49.0974V48.5414C47.2615 44.5506 52.7052 36.9751 53.8178 28.3032L54.0086 26.8097H50.1557C50.1378 22.2756 47.1772 18.4207 43.0591 16.9654L55.1255 5.56101C55.6622 5.05393 55.6794 4.21382 55.1612 3.68678C55.0385 3.56131 54.8917 3.46082 54.7294 3.39105C54.567 3.32129 54.3923 3.28362 54.2152 3.28019C54.038 3.27677 53.8619 3.30766 53.6969 3.3711C53.5319 3.43454 53.3812 3.52928 53.2535 3.64992L39.8123 16.3555C39.6917 16.3507 39.5717 16.3374 39.4492 16.3374C39.3717 16.3374 39.2972 16.3483 39.2209 16.3495L47.8449 1.99931C47.9351 1.84935 47.9943 1.6834 48.0191 1.51096C48.044 1.33852 48.034 1.16296 47.9898 0.994309C47.9456 0.825653 47.868 0.667208 47.7614 0.52802C47.6548 0.388832 47.5213 0.271628 47.3686 0.183102ZM18.5717 13.3595C23.7391 13.3595 28.4492 16.2165 30.792 20.6927C29.9379 21.8464 29.3323 23.1591 29.0123 24.5505C27.9385 19.8556 23.6689 16.3362 18.5717 16.3362C12.6843 16.3362 7.89477 21.0311 7.86954 26.8104H4.83446C4.85908 19.3902 11.0105 13.3595 18.5717 13.3595ZM18.5717 21.9728C15.8455 21.9728 13.6271 24.1395 13.6018 26.8104H10.5711C10.5963 22.4938 14.1735 18.9895 18.5717 18.9895C22.9711 18.9895 26.552 22.4938 26.5748 26.8104H23.5403C23.5163 24.1395 21.2978 21.9728 18.5717 21.9728ZM20.8375 26.811H16.3058C16.3179 26.2279 16.5619 25.6727 16.9857 25.2642C17.4094 24.8557 17.9792 24.6265 18.5729 24.6255C19.1664 24.6266 19.7358 24.856 20.1591 25.2646C20.5824 25.6731 20.826 26.2282 20.8375 26.811ZM50.8966 29.4637C49.3957 37.1721 44.0732 43.7437 36.6966 46.8914H32.3735V49.5447H36.6677C36.5666 49.961 36.3258 50.3318 35.9842 50.5974C35.6425 50.8631 35.2198 51.0081 34.784 51.0092H17.2794V49.5447H22.3434V46.8914H17.312C9.93538 43.7455 4.61231 37.1721 3.11015 29.4637H50.8966ZM37.184 26.811C37.1959 26.2282 37.4396 25.6732 37.863 25.2647C38.2864 24.8562 38.8558 24.6268 39.4492 24.6255C40.0432 24.626 40.6134 24.8551 41.0374 25.2636C41.4615 25.6722 41.7056 26.2277 41.7175 26.811H37.184ZM39.4492 18.9901C43.8505 18.9901 47.4326 22.4944 47.456 26.811H44.4197C44.3951 24.1401 42.176 21.9734 39.4492 21.9734C36.7231 21.9734 34.5065 24.1401 34.4818 26.811H31.4486C31.4732 22.4944 35.0505 18.9901 39.4492 18.9901Z" fill="#AD343E"/>
</svg>
