<svg width="56" height="55" viewBox="0 0 56 55" fill="none" xmlns="http://www.w3.org/2000/svg">
<g clip-path="url(#clip0_1_123)">
<path d="M47.6695 0.803847C47.361 0.625815 46.9931 0.575085 46.6466 0.662756C46.3 0.750428 46.0029 0.969362 45.8203 1.27165L36.1489 17.3631C36.0993 17.4465 36.0593 17.5351 36.0295 17.6272C34.9474 18.0212 33.9374 18.5848 33.0388 19.2959C30.1083 14.4064 24.7391 11.3276 18.8732 11.3276C9.82215 11.3276 2.45969 18.5483 2.43446 27.4317H0.300922L0.491692 28.924C1.60185 37.597 7.048 45.1725 14.8788 49.1615V54.2826H35.0843C37.6455 54.2826 39.7292 52.2343 39.7292 49.7182V49.1621C47.5625 45.1713 53.0062 37.5958 54.1188 28.924L54.3095 27.4305H50.4566C50.4388 22.8963 47.4781 19.0415 43.36 17.5861L55.4265 6.18176C55.9631 5.67467 55.9803 4.83456 55.4622 4.30753C55.3394 4.18205 55.1926 4.08156 55.0303 4.0118C54.868 3.94203 54.6932 3.90436 54.5161 3.90094C54.3389 3.89752 54.1628 3.92841 53.9978 3.99184C53.8328 4.05528 53.6822 4.15002 53.5545 4.27066L40.1132 16.9763C39.9926 16.9714 39.8726 16.9581 39.7502 16.9581C39.6726 16.9581 39.5982 16.969 39.5218 16.9702L48.1458 2.62006C48.236 2.47009 48.2952 2.30415 48.3201 2.13171C48.3449 1.95927 48.335 1.78371 48.2907 1.61505C48.2465 1.4464 48.1689 1.28795 48.0623 1.14876C47.9557 1.00958 47.8222 0.892373 47.6695 0.803847ZM18.8726 13.9803C24.04 13.9803 28.7502 16.8373 31.0929 21.3134C30.2388 22.4671 29.6332 23.7798 29.3132 25.1713C28.2394 20.4763 23.9698 16.9569 18.8726 16.9569C12.9852 16.9569 8.19569 21.6519 8.17046 27.4311H5.13538C5.16 20.0109 11.3114 13.9803 18.8726 13.9803ZM18.8726 22.5935C16.1465 22.5935 13.928 24.7603 13.9028 27.4311H10.872C10.8972 23.1145 14.4745 19.6102 18.8726 19.6102C23.272 19.6102 26.8529 23.1145 26.8757 27.4311H23.8412C23.8172 24.7603 21.5988 22.5935 18.8726 22.5935ZM21.1385 27.4317H16.6068C16.6188 26.8487 16.8629 26.2935 17.2866 25.885C17.7103 25.4765 18.2801 25.2472 18.8738 25.2462C19.4673 25.2474 20.0367 25.4768 20.46 25.8853C20.8833 26.2938 21.1269 26.8489 21.1385 27.4317ZM51.1975 30.0844C49.6966 37.7929 44.3741 44.3645 36.9975 47.5121H32.6745V50.1654H36.9686C36.8675 50.5817 36.6268 50.9525 36.2851 51.2182C35.9434 51.4838 35.5207 51.6288 35.0849 51.6299H17.5803V50.1654H22.6443V47.5121H17.6129C10.2363 44.3663 4.91323 37.7929 3.41108 30.0844H51.1975ZM37.4849 27.4317C37.4968 26.8489 37.7406 26.2939 38.1639 25.8854C38.5873 25.477 39.1567 25.2475 39.7502 25.2462C40.3442 25.2467 40.9143 25.4758 41.3384 25.8844C41.7624 26.2929 42.0065 26.8484 42.0185 27.4317H37.4849ZM39.7502 19.6108C44.1514 19.6108 47.7335 23.1151 47.7569 27.4317H44.7206C44.696 24.7609 42.4769 22.5941 39.7502 22.5941C37.024 22.5941 34.8074 24.7609 34.7828 27.4317H31.7495C31.7742 23.1151 35.3514 19.6108 39.7502 19.6108Z" fill="#AD343E"/>
<path d="M39.1742 42.9139C39.3902 42.9139 39.6086 42.8637 39.8098 42.7568C41.4592 41.8896 42.9066 40.6947 44.0599 39.248C45.2131 37.8012 46.047 36.1345 46.5083 34.3538C46.5525 34.1848 46.5623 34.0088 46.5371 33.836C46.5119 33.6633 46.4522 33.4971 46.3615 33.347C46.2708 33.1969 46.1507 33.0659 46.0083 32.9615C45.8659 32.8571 45.704 32.7813 45.5317 32.7385C45.3594 32.6957 45.1802 32.6867 45.0043 32.7121C44.8285 32.7374 44.6595 32.7966 44.507 32.8863C44.3546 32.976 44.2216 33.0943 44.1158 33.2345C44.01 33.3748 43.9334 33.5341 43.8905 33.7035C43.5222 35.1266 42.8561 36.4588 41.9346 37.6151C41.0131 38.7714 39.8565 39.7265 38.5385 40.4196C38.2727 40.5585 38.0618 40.7808 37.9396 41.051C37.8173 41.3212 37.7906 41.6239 37.8637 41.9108C37.9368 42.1976 38.1055 42.4522 38.343 42.634C38.5805 42.8158 38.8731 42.9143 39.1742 42.9139Z" fill="#474747"/>
<path d="M35.9058 45.0063C36.7902 45.0063 37.5071 44.3022 37.5071 43.4337C37.5071 42.5651 36.7902 41.861 35.9058 41.861C35.0215 41.861 34.3046 42.5651 34.3046 43.4337C34.3046 44.3022 35.0215 45.0063 35.9058 45.0063Z" fill="#474747"/>
</g>
<defs>
<clipPath id="clip0_1_123">
<rect width="56" height="55" fill="white"/>
</clipPath>
</defs>
</svg>
